# AST/ASF file generated using VICON BodyLanguage
# -----------------------------------------------
:version 1.10
:name VICON
:units
  mass 1.0
  length 0.45
  angle deg
:documentation
   .ast/.asf automatically generated from VICON data using
   VICON BodyBuilder and BodyLanguage model FoxedUp or BRILLIANT.MOD
:root
   order TX TY TZ RX RY RZ
   axis XYZ
   position 0 0 0  
   orientation 0 -0 0 
:bonedata
  begin
     id 1 
     name lhipjoint
     direction 0.515797 -0.759363 0.396637 
     length 2.47888 
     axis 0 -0 0  XYZ
  end
  begin
     id 2 
     name lfemur
     direction 0.34202 -0.939693 0  
     length 6.81885  
     axis 0 -0 20  XYZ
    dof rx ry rz
    limits (-160.0 20.0)
           (-70.0 70.0)
           (-60.0 70.0)
  end
  begin
     id 3 
     name ltibia
     direction 0.342037 -0.939687 0   
     length 7.89258   
     axis 0 -0 20   XYZ
    dof rx
    limits (-10.0 170.0)
  end
  begin
     id 4 
     name lfoot
     direction 0.173497 -0.476678 0.861787   
     length 2.51543   
     axis -90 -1.13533e-015 20   XYZ
    dof rx rz
    limits (-45.0 90.0)
           (-70.0 20.0)
  end
  begin
     id 5 
     name ltoes
     direction 1.53564e-011 -4.21897e-011 1   
     length 1.21388   
     axis -90 -1.13533e-015 20   XYZ
    dof rx
    limits (-90.0 20.0)
  end
  begin
     id 6 
     name rhipjoint
     direction -0.489454 -0.772941 0.403729   
     length 2.43534  
     axis 0 -0 0  XYZ 
  end
  begin
     id 7 
     name rfemur
     direction -0.34202 -0.939693 0   
     length 7.10357   
     axis 0 -0 -20   XYZ
    dof rx ry rz
    limits (-160.0 20.0)
           (-70.0 70.0)
           (-70.0 60.0)
  end
  begin
     id 8 
     name rtibia
     direction -0.34202 -0.939693 0   
     length 9.16127   
     axis 0 -0 -20   XYZ
    dof rx
    limits (-10.0 170.0)
 end
 begin
     id 9 
     name rfoot
     direction -0.270974 -0.748671 0.605033   
     length 1.74894  
     axis -90 1.13533e-015 -20   XYZ
    dof rx rz
    limits (-45.0 90.0)
           (-20.0 70.0)
  end
  begin
     id 10 
     name rtoes
     direction -1.53557e-011 -4.21759e-011 1   
     length 0.787585   
     axis -90 1.13533e-015 -20   XYZ
    dof rx
    limits (-90.0 20.0)
  end
  begin
     id 11 
     name lowerback
     direction -0.0140249 0.999561 0.0260968   
     length 2.16963   
     axis 0 -0 0   XYZ
    dof rx ry rz
    limits (-20.0 45.0)
           (-30.0 30.0)
           (-30.0 30.0)
  end
  begin
     id 12 
     name upperback
     direction 0.00860018 0.999959 -0.002711   
     length 2.1726   
     axis 0 -0 0   XYZ
    dof rx ry rz
    limits (-20.0 45.0)
           (-30.0 30.0)
           (-30.0 30.0)
  end
  begin
     id 13 
     name thorax
     direction 0.015211 0.999782 -0.0143191   
     length 2.17061   
     axis 0 -0 0   XYZ
    dof rx ry rz
    limits (-20.0 45.0)
           (-30.0 30.0)
           (-30.0 30.0)
  end
  begin
     id 14 
     name lowerneck
     direction -0.0140143 0.999447 0.030145   
     length 2.26749   
     axis 0 -0 0   XYZ
    dof rx ry rz
    limits (-20.0 45.0)
           (-30.0 30.0)
           (-30.0 30.0)
  end
  begin
     id 15 
     name upperneck
     direction 0.118062 0.961438 -0.248392   
     length 2.22728   
     axis 0 -0 0   XYZ
    dof rx ry rz
    limits (-20.0 45.0)
           (-30.0 30.0)
           (-30.0 30.0)
  end
  begin
     id 16
     name head
     direction 0.0431885 0.9954 -0.085514  
     length 2.28786  
     axis 0 -0 0   XYZ
    dof rx ry rz
    limits (-20.0 45.0)
           (-30.0 30.0)
           (-30.0 30.0)
  end
  begin
     id 17 
     name lclavicle
     direction 0.912126 0.409548 0.0172323  
     length 4.31571  
     axis 0 -0 0   XYZ
    dof ry rz
    limits (-20.0 10.0)
           (0.0 20.0)
  end
  begin
     id 18 
     name lhumerus
     direction 1 -4.48977e-011 1.93091e-027   
     length 5.13658   
     axis 180 -30 -90   XYZ
    dof rx ry rz
    limits (-60.0 90.0)
           (-90.0 90.0)
           (-90.0 90.0)
  end
  begin
     id 19
     name lradius
     direction 1 -4.48916e-011 6.84018e-027   
     length 3.22473   
     axis 180 -30 -90   XYZ
    dof rx
    limits (-10.0 170.0)
  end
  begin
     id 20
     name lwrist
     direction 1 -4.48987e-011 7.01981e-027   
     length 1.61236   
     axis -4.37994e-015 90 90   XYZ
    dof ry
    limits (-180.0 0.0)
 end
  begin
     id 21 
     name lhand
     direction 1 -4.49037e-011 1.40335e-026   
     length 0.936406   
     axis -8.96029e-015 90 90   XYZ
    dof rx rz
    limits (-90.0 90.0)
           (-45.0 45.0)
  end
  begin
     id 22 
     name lfingers
     direction 1 -4.48886e-011 2.8104e-026   
     length 0.754955   
     axis -1.79203e-014 90 90   XYZ
    dof rx
    limits (0.0 90.0)
  end
  begin
     id 23
     name lthumb
     direction 0.707107 -6.34937e-011 0.707107   
     length 1.08397   
     axis -90 45 -4.48555e-014   XYZ
    dof rx rz
    limits (-45.0 45.0)
           (-45.0 45.0)
  end
  begin
     id 24 
     name rclavicle
     direction -0.947962 0.317997 0.0156638   
     length 4.86918  
     axis 0 -0 0   XYZ 
    dof ry rz
    limits (-10.0 20.0)
           (-20.0 0.0)
  end
  begin
     id 25 
     name rhumerus
     direction -1 -4.48951e-011 2.80534e-018  
     length 5.60911   
     axis 180 30 90   XYZ
    dof rx ry rz
    limits (-90.0 60.0)
           (-90.0 90.0)
           (-90.0 90.0)
  end
  begin
     id 26 
     name rradius
     direction -1 -4.4898e-011 2.11315e-027   
     length 3.38704   
     axis 180 30 90   XYZ
    dof rx
    limits (-10.0 170.0)
  end
  begin
     id 27 
     name rwrist
     direction -1 -4.48933e-011 7.02314e-027   
     length 1.69352   
     axis -4.37994e-015 -90 -90   XYZ
    dof ry
    limits (-180.0 0.0)
  end
  begin
     id 28
     name rhand
     direction -1 -4.48937e-011 1.40458e-026   
     length 0.755878   
     axis -8.96029e-015 -90 -90   XYZ
    dof rx rz
    limits (-90.0 90.0)
           (-45.0 45.0)
  end
  begin
     id 29
     name rfingers
     direction -1 -4.4901e-011 2.80737e-026   
     length 0.609409   
     axis -1.79203e-014 -90 -90   XYZ
    dof rx
    limits (0.0 90.0)
  end
  begin
     id 30
     name rthumb
     direction -0.707107 -6.34968e-011 0.707107   
     length 0.874992   
     axis -90 -45 4.48555e-014   XYZ
    dof rx rz
    limits (-45.0 45.0)
           (-45.0 45.0)
  end
:hierarchy
  begin
    root lhipjoint rhipjoint lowerback
    lhipjoint lfemur
    lfemur ltibia
    ltibia lfoot
    lfoot ltoes
    rhipjoint rfemur
    rfemur rtibia
    rtibia rfoot
    rfoot rtoes
    lowerback upperback
    upperback thorax
    thorax lowerneck lclavicle rclavicle
    lowerneck upperneck
    upperneck head
    lclavicle lhumerus
    lhumerus lradius
    lradius lwrist
    lwrist lhand lthumb
    lhand lfingers
    rclavicle rhumerus
    rhumerus rradius
    rradius rwrist
    rwrist rhand rthumb
    rhand rfingers
  end

#!OML:ASF C:\ViconDB\ViconDB\414\Spring2016\041811\Spring2016.ASF
:FULLY-SPECIFIED
:DEGREES
93
root 6.6632 18.2955 -6.5737 -177.434 -8.09677 179.426
lowerback -3.41447 1.0812 -3.81954
upperback 1.33246 1.60851 0.324947
thorax 3.17501 0.717122 2.57361
lowerneck -14.6705 1.5486 -4.90089
upperneck 26.3272 -0.291676 9.02819
head 10.8898 -0.0116256 3.9975
rclavicle -2.15868e-014 7.65321e-015
rhumerus -43.2542 -15.1846 -85.4906
rradius 38.6945
rwrist 33.6149
rhand -37.7887 -15.1898
rfingers 7.12502
rthumb -10.8354 -44.8903
lclavicle -2.15868e-014 7.65321e-015
lhumerus -37.9018 -1.98288 91.7697
lradius 27.1574
lwrist -29.2918
lhand -36.0436 17.8634
lfingers 7.12502
lthumb -9.15184 47.6448
rfemur 0.711451 -13.9819 18.9968
rtibia 12.4766
rfoot -11.1331 -2.49277
rtoes -12.0418
lfemur -7.75668 -11.0788 -17.5907
ltibia 22.716
lfoot -21.0978 9.23918
ltoes -10.2053
94
root 6.66356 18.2947 -6.57646 -177.407 -8.04042 179.417
lowerback -3.33441 1.09505 -3.83288
upperback 1.3413 1.62452 0.303157
thorax 3.13812 0.725508 2.55759
lowerneck -14.5471 1.40655 -4.99515
upperneck 26.2283 -0.489095 9.08852
head 10.8452 -0.107765 4.00467
rclavicle -2.69043e-014 -3.97569e-016
rhumerus -43.2365 -14.9097 -85.6302
rradius 39.1745
rwrist 33.0091
rhand -38.0272 -14.8374
rfingers 7.12502
rthumb -11.0655 -44.5257
lclavicle -2.69043e-014 -3.97569e-016
lhumerus -38.0177 -1.98582 91.6721
lradius 27.6382
lwrist -28.6089
lhand -36.4019 18.0881
lfingers 7.12502
lthumb -9.49761 47.854
rfemur 0.646494 -13.9936 18.9881
rtibia 12.5365
rfoot -11.1098 -2.56708
rtoes -12.1369
lfemur -7.78918 -10.9884 -17.5898
ltibia 22.7463
lfoot -21.0989 9.20012
ltoes -10.2335
95
root 6.66382 18.2948 -6.57927 -177.389 -7.99645 179.431
lowerback -3.25185 1.10006 -3.8168
upperback 1.36978 1.62742 0.28395
thorax 3.12173 0.727138 2.52723
lowerneck -14.5007 1.25562 -5.13182
upperneck 26.1532 -0.717396 9.25164
head 10.8279 -0.20917 4.05556
rclavicle -2.1388e-014 3.52843e-015
rhumerus -43.1363 -14.284 -85.9741
rradius 39.7768
rwrist 31.8442
rhand -38.0958 -15.2852
rfingers 7.12502
rthumb -11.1317 -44.97
lclavicle -2.1388e-014 3.52843e-015
lhumerus -38.0813 -2.07677 91.5922
lradius 28.1435
lwrist -27.9434
lhand -36.6088 18.3979
lfingers 7.12502
lthumb -9.69724 48.1547
rfemur 0.597895 -14.0103 19.0036
rtibia 12.5916
rfoot -11.1394 -2.61943
rtoes -12.1825
lfemur -7.81608 -10.9454 -17.5675
ltibia 22.7776
lfoot -21.1206 9.19539
ltoes -10.1932
96
root 6.66548 18.2942 -6.58144 -177.388 -7.96378 179.447
lowerback -3.13084 1.10073 -3.81853
upperback 1.37705 1.62276 0.292434
thorax 3.06102 0.725766 2.53375
lowerneck -14.393 1.11522 -5.30394
upperneck 26.0826 -0.913433 9.37288
head 10.7976 -0.306435 4.1005
rclavicle 2.1593e-014 8.64713e-015
rhumerus -43.2038 -14.2096 -85.9367
rradius 40.4156
rwrist 31.6233
rhand -38.1317 -15.1875
rfingers 7.12502
rthumb -11.1663 -44.8704
lclavicle 2.1593e-014 8.64713e-015
lhumerus -38.2354 -1.97634 91.4953
lradius 28.761
lwrist -27.2282
lhand -36.9605 18.6806
lfingers 7.12502
lthumb -10.0366 48.4213
rfemur 0.566278 -13.9853 19.0297
rtibia 12.6507
rfoot -11.1218 -2.63306
rtoes -12.1499
lfemur -7.82915 -10.8863 -17.5372
ltibia 22.8061
lfoot -21.1419 9.16061
ltoes -10.1666
